<?xml version="1.0" encoding="utf-8"?>
<!-- Generator: Adobe Illustrator 15.1.0, SVG Export Plug-In . SVG Version: 6.00 Build 0)  -->
<!DOCTYPE svg PUBLIC "-//W3C//DTD SVG 1.1//EN" "http://www.w3.org/Graphics/SVG/1.1/DTD/svg11.dtd">
<svg version="1.1" id="Layer_1" xmlns="http://www.w3.org/2000/svg" xmlns:xlink="http://www.w3.org/1999/xlink" x="0px" y="0px"
	 width="200px" height="200px" viewBox="0 0 200 200" enable-background="new 0 0 200 200" xml:space="preserve">
<circle fill="#FFFFFF" cx="99.453" cy="99.453" r="97.453"/>
<g>
	<path fill="#1C8ECD" d="M100,0C44.772,0,0,44.771,0,100c0,55.229,44.772,100,100,100c55.229,0,100-44.771,100-100
		C200,44.771,155.229,0,100,0z M136.423,159.785c-11.741,0-22.331-5.014-29.754-13.006H38.098c-2.631,0-4.765-2.133-4.765-4.764
		v-85.15c0-2.631,2.133-4.764,4.765-4.764h123.804c2.632,0,4.766,2.133,4.766,4.764v35.207c6.45,7.194,10.381,16.689,10.381,27.088
		C177.048,141.561,158.822,159.785,136.423,159.785z"/>
	<path fill="#D2E3EB" d="M97.001,109.355c0.873-3.506,2.203-6.834,3.921-9.917H43.417v37.254h56.366
		c-1.178-2.45-2.112-5.041-2.782-7.73H53.688v-7.675h42.166c-0.036-0.706-0.056-1.415-0.056-2.129c0-0.718,0.02-1.427,0.056-2.132
		H53.688v-7.674h43.313V109.355z"/>
	<rect x="43.417" y="62.185" fill="#D2E3EB" width="113.166" height="6.279"/>
	<path fill="#E6547B" d="M166.667,108.152c-1.271-3.482-3.094-6.701-5.416-9.506c-1.394-1.684-2.964-3.213-4.668-4.583
		c-5.524-4.447-12.53-7.125-20.16-7.125c-10.336,0-19.524,4.912-25.426,12.502c-4.241,5.457-6.795,12.289-6.795,19.72
		c0,6.467,1.933,12.482,5.226,17.535c2.68,4.109,6.272,7.556,10.486,10.084c4.837,2.902,10.471,4.603,16.509,4.603
		c6.039,0,11.673-1.7,16.511-4.603c6.293-3.777,11.184-9.627,13.733-16.612c1.258-3.44,1.978-7.138,1.978-11.007
		C168.645,115.29,167.925,111.594,166.667,108.152z M139.688,139.867c-0.273,0.642-0.654,1.195-1.146,1.664
		c-0.487,0.469-1.06,0.834-1.708,1.1c-0.652,0.264-1.354,0.396-2.107,0.396c-0.771,0-1.483-0.135-2.138-0.396
		c-0.651-0.266-1.216-0.631-1.692-1.1c-0.479-0.469-0.854-1.022-1.129-1.664c-0.275-0.641-0.414-1.328-0.414-2.062
		c0-0.732,0.139-1.412,0.414-2.047c0.272-0.63,0.648-1.178,1.129-1.646c0.479-0.467,1.041-0.84,1.692-1.113
		c0.652-0.273,1.364-0.412,2.138-0.412c0.754,0,1.455,0.139,2.107,0.412c0.648,0.273,1.221,0.646,1.708,1.113
		c0.489,0.471,0.87,1.019,1.146,1.646c0.274,0.635,0.412,1.312,0.412,2.047S139.962,139.227,139.688,139.867z M147.945,112.467
		c-0.428,1.12-0.973,2.098-1.633,2.932c-0.662,0.834-1.385,1.555-2.168,2.151c-0.783,0.603-1.527,1.166-2.229,1.696
		c-0.703,0.527-1.313,1.047-1.832,1.557c-0.521,0.508-0.84,1.079-0.962,1.709l-0.854,4.274h-6.475l-0.671-4.916
		c-0.021-0.123-0.036-0.244-0.046-0.366c-0.012-0.121-0.018-0.244-0.018-0.367c0-0.895,0.215-1.678,0.645-2.351
		c0.427-0.671,0.965-1.287,1.617-1.847c0.648-0.562,1.354-1.1,2.104-1.619c0.753-0.519,1.454-1.077,2.104-1.678
		c0.652-0.603,1.191-1.272,1.619-2.018c0.429-0.741,0.643-1.622,0.643-2.641c0-1.221-0.402-2.191-1.207-2.916
		c-0.805-0.723-1.906-1.086-3.312-1.086c-1.078,0-1.979,0.113-2.701,0.338c-0.725,0.226-1.344,0.475-1.862,0.748
		s-0.972,0.523-1.358,0.748c-0.386,0.226-0.771,0.336-1.158,0.336c-0.877,0-1.525-0.377-1.955-1.131l-2.504-3.846
		c0.752-0.632,1.572-1.222,2.457-1.772c0.888-0.549,1.838-1.032,2.854-1.45c1.019-0.417,2.112-0.743,3.282-0.977
		s2.438-0.352,3.801-0.352c1.912,0,3.639,0.254,5.176,0.763c1.536,0.509,2.842,1.237,3.922,2.183
		c1.078,0.946,1.907,2.086,2.488,3.419c0.579,1.332,0.87,2.812,0.87,4.441C148.587,110.005,148.373,111.348,147.945,112.467z"/>
</g>
</svg>
